<svg width="472" height="243" version="1.1" xmlns="http://www.w3.org/2000/svg" desc="Created with imagetracer.js version 1.2.6" ><path fill="rgb(6,7,8)" stroke="rgb(6,7,8)" stroke-width="1" opacity="0.19607843137254902" d="M 0 0 L 472 0 L 472 243 L 0 243 L 0 0 Z M 213 17 Q 184 21 168 37 Q 148 52 142 80 Q 139 119 158 137 Q 177 160 215 166 Q 224 165 225 167 L 225 234 L 243 234 L 243 203 L 250 200 L 252 203 L 252 234 L 269 234 L 270 233 L 270 197 L 266 187 L 259 184 Q 249 183 245 187 L 243 187 L 243 165 Q 269 161 286 146 Q 308 129 312 95 Q 311 62 294 46 Q 270 14 213 17 Z M 418 166 L 416 168 L 416 234 L 433 234 L 434 233 Q 436 225 433 224 Q 432 216 435 217 Q 434 223 439 226 L 440 226 L 435 214 L 432 215 L 432 233 L 418 233 L 418 169 L 419 168 L 432 168 L 432 203 L 434 204 L 436 203 L 442 192 L 442 189 L 435 201 L 434 168 Q 430 162 418 166 Z M 27 169 L 17 173 Q 11 177 10 185 Q 9 195 13 201 L 18 205 Q 31 207 39 215 L 38 219 L 40 218 L 39 211 L 19 204 L 12 196 Q 10 181 16 176 L 24 171 Q 42 169 53 175 L 52 187 Q 48 182 38 183 Q 29 182 27 187 L 28 190 L 31 185 Q 44 184 53 188 Q 57 185 54 174 Q 44 167 27 169 Z M 275 170 L 275 233 L 277 234 L 293 234 L 293 214 L 297 213 L 298 217 L 300 218 L 299 214 Q 298 210 294 211 L 292 213 L 292 233 L 278 233 L 277 233 L 277 171 Q 290 174 309 172 L 319 177 L 323 187 Q 324 199 319 205 L 314 208 Q 317 221 324 232 L 324 233 L 307 233 L 302 220 L 300 219 L 306 233 L 307 234 L 326 234 L 315 211 Q 314 208 317 209 Q 322 205 324 198 Q 326 184 321 178 Q 316 172 307 170 L 275 170 Z M 87 184 L 77 189 L 75 185 L 62 185 L 61 186 L 61 234 L 78 234 L 78 202 L 81 201 Q 86 200 86 202 L 86 233 L 88 234 L 103 234 L 103 210 L 104 209 Q 102 207 103 203 L 108 200 Q 111 199 112 203 L 112 234 L 129 234 Q 126 226 130 224 Q 133 202 127 190 L 120 184 Q 107 183 102 189 Q 98 183 87 184 Z M 153 184 Q 143 184 137 188 L 138 201 Q 144 202 147 199 L 158 199 L 158 204 Q 146 203 139 208 Q 134 211 132 218 Q 132 225 135 230 Q 138 234 145 236 Q 152 237 157 234 L 157 233 L 152 234 L 141 233 Q 136 230 134 224 Q 133 215 137 212 Q 143 205 156 205 Q 163 207 160 200 L 157 197 Q 146 196 140 200 L 138 188 L 148 186 Q 163 184 171 189 Q 176 194 175 207 L 174 217 L 174 219 L 177 223 L 179 222 L 178 221 L 176 220 L 176 197 L 173 190 Q 167 182 153 184 Z M 197 184 L 186 188 L 182 197 Q 181 208 186 212 Q 198 213 205 220 L 204 222 Q 191 223 184 219 L 183 233 L 199 236 Q 210 237 216 232 Q 216 229 219 230 L 222 224 L 221 212 Q 214 202 199 201 L 201 198 Q 211 197 218 200 L 220 187 Q 211 183 197 184 Z M 292 184 L 292 199 L 294 200 Q 300 201 304 199 L 307 195 L 306 187 Q 302 182 292 184 Z M 344 184 L 335 188 Q 327 193 326 204 Q 324 220 330 228 Q 335 235 347 236 Q 358 237 365 232 Q 371 227 373 218 Q 375 201 369 193 Q 363 182 344 184 Z M 392 184 L 380 190 L 375 203 Q 373 220 380 229 Q 385 234 395 236 Q 407 237 413 233 Q 414 224 411 218 L 406 220 Q 395 222 393 216 Q 390 202 398 199 Q 406 198 410 201 Q 413 196 413 188 Q 406 182 392 184 Z M 444 185 L 442 187 L 443 189 Q 446 183 459 187 L 460 187 L 448 207 Q 447 212 450 214 L 451 214 L 449 210 Q 454 197 462 188 L 462 185 L 444 185 Z M 29 190 L 28 192 L 49 199 Q 55 202 56 211 Q 58 222 52 227 Q 49 227 50 230 L 40 234 Q 22 235 12 231 Q 10 225 13 223 L 12 217 Q 21 222 37 221 L 38 219 L 35 220 Q 20 220 11 215 L 10 231 Q 16 235 27 236 Q 42 237 51 231 Q 55 227 57 221 Q 59 209 55 204 Q 46 192 29 190 Z M 156 213 Q 150 213 148 218 L 149 223 L 152 224 Q 158 225 160 222 L 161 217 L 160 215 Q 161 211 156 213 Z M 452 214 Q 453 224 461 233 L 444 233 L 442 229 Q 443 225 440 226 L 443 233 L 444 234 L 463 234 Q 460 223 452 214 Z M 180 222 Q 182 231 178 234 Q 168 235 164 232 L 163 229 L 159 231 Q 156 230 157 233 L 161 231 Q 164 230 163 233 L 172 236 Q 178 237 180 234 L 180 222 Z " /><path fill="rgb(6,7,8)" stroke="rgb(6,7,8)" stroke-width="1" opacity="0.19607843137254902" d="M 216.5 18 Q 270.436 16.564 293 46.5 Q 311.676 62.324 310 98.5 Q 305.898 122.631 293 137 Q 288.708 136.344 289 140.5 Q 270.961 158.854 241 164 L 241 188.5 L 242.5 190 Q 247.5 184.5 259.5 186 L 267 191.5 L 268 194.5 L 268 233 L 253 232.5 L 254 231.5 L 254 211.5 Q 255.875 202.125 251.5 199 Q 243.929 197.929 241 201.5 L 241 233 L 227 233 L 227 165.5 Q 226.375 163.875 217.5 165 Q 179.282 159.218 159 135.5 Q 141.529 118.971 143 83.5 Q 148.418 53.418 168.5 38 Q 186.5 22 216.5 18 Z M 214 26 Q 183 32 166 52 L 167 53 Q 184 32 218 27 Q 266 26 287 53 L 287 52 Q 266 23 214 26 Z M 219 37 L 203 62 L 197 60 L 186 75 L 180 71 L 178 71 Q 167 81 153 87 Q 155 66 166 55 L 166 53 Q 153 65 151 87 L 153 89 L 162 84 Q 165 85 164 82 Q 167 81 166 84 L 168 83 L 167 81 L 170 79 L 170 81 Q 167 82 171 84 Q 167 83 168 86 L 152 100 Q 154 120 165 131 Q 183 151 216 157 Q 260 159 281 138 Q 296 126 300 104 L 282 91 L 280 88 Q 273 86 269 80 L 266 80 L 264 86 L 262 87 L 262 89 L 260 92 L 262 99 L 262 100 L 264 99 L 265 102 Q 264 104 267 103 L 271 110 Q 270 112 273 111 L 274 114 L 273 113 L 270 111 L 263 103 L 255 97 L 239 81 Q 240 78 237 79 L 234 73 Q 227 72 226 77 Q 223 76 224 79 L 220 81 L 217 80 L 224 64 Q 225 54 221 50 L 219 48 L 216 52 L 215 51 Q 214 56 211 59 Q 212 61 209 60 L 207 64 Q 208 67 205 66 Q 206 74 199 78 L 198 76 L 194 79 L 197 83 L 197 88 L 205 105 L 206 106 L 203 102 L 195 97 Q 196 94 193 93 L 195 90 L 194 83 L 191 81 L 183 92 L 180 93 L 180 95 Q 178 99 177 96 Q 176 102 172 103 L 170 103 L 178 92 Q 177 89 180 90 L 181 92 L 182 90 L 179 89 Q 180 85 177 83 L 173 81 L 173 83 Q 169 81 173 79 Q 170 80 171 77 L 175 78 L 177 74 Q 179 75 178 73 L 182 75 Q 182 78 187 77 L 197 62 L 199 63 Q 198 66 204 64 L 205 65 L 204 63 L 220 38 L 231 53 Q 230 56 235 56 L 253 85 L 256 86 L 260 80 Q 254 78 254 71 L 254 69 L 263 75 L 267 70 L 269 71 L 272 75 Q 274 74 273 77 L 279 82 Q 279 86 283 85 L 288 91 Q 288 96 293 95 L 300 103 L 302 102 Q 304 76 294 62 L 292 61 Q 300 72 301 91 L 300 101 L 296 98 Q 297 95 294 96 L 287 87 Q 284 88 285 86 L 270 70 L 265 69 L 263 73 Q 259 66 251 67 Q 252 75 258 79 L 256 83 Q 257 85 254 84 L 237 56 L 235 54 L 223 40 Q 222 37 219 37 Z M 288 53 L 289 58 L 292 60 L 288 53 Z M 261 75 Q 259 78 262 77 L 261 75 Z " /><path fill="rgb(6,7,8)" stroke="rgb(6,7,8)" stroke-width="1" opacity="0.19607843137254902" d="M 218.5 51 Q 221.125 50.167 220 53.5 L 223 61.5 L 215 79.5 L 217.5 83 Q 227.172 81.172 232.5 75 L 256.5 101 L 261 104.5 Q 260.25 108.437 264.5 108 Q 269.05 118.05 279 120 L 262 92.5 L 267.5 83 L 298 105.5 Q 293.225 129.225 275.5 140 Q 257.298 155.298 224.5 156 Q 189.647 153.134 171 135 Q 171.545 129.811 167 129.5 Q 156.636 118.864 153 101.5 L 155 98 L 175.5 83 L 178 86.5 L 164 109.5 Q 166.75 113.75 169.5 107 L 182 95.5 L 185 90 Q 187.667 91.125 187 88.5 L 190.5 84 L 192.5 83 L 193 90.5 L 192 94.5 L 198.5 102 L 201.5 104 L 210 111 L 210 108.5 L 198 84.5 Q 206 65.5 218.5 51 Z " /><path fill="rgb(6,7,8)" stroke="rgb(6,7,8)" stroke-width="1" opacity="0.19607843137254902" d="M 196.5 79 Q 198.75 78.25 198 80.5 L 196.5 79 Z " /><path fill="rgb(6,7,8)" stroke="rgb(6,7,8)" stroke-width="1" opacity="0.19607843137254902" d="M 297.5 185 Q 303.083 184.917 305 188.5 Q 306.75 196.417 303.5 196 Q 301.139 200.25 293 198 L 293 186.5 L 296.5 186 L 297.5 185 Z " /><path fill="rgb(6,7,8)" stroke="rgb(6,7,8)" stroke-width="1" opacity="0.19607843137254902" d="M 62.5 186 Q 65.295 189.75 74 187 L 75 191 Q 79.85 184.5 93.5 186 L 101.5 191 Q 106.714 184.214 120.5 186 L 126 190.5 L 128 196.5 L 128 233 L 113 232.5 L 114 231.5 L 114 212.5 Q 110.25 209.75 113 200.5 L 111.5 199 Q 104.25 197.75 102 201.5 L 102 233 L 88 233 L 88 202.5 L 85.5 199 Q 79.286 198.429 77 201 L 77 233 L 62 233 L 62.5 186 Z " /><path fill="rgb(6,7,8)" stroke="rgb(6,7,8)" stroke-width="1" opacity="0.19607843137254902" d="M 193.5 186 Q 209.5 184 218 188 L 217 199 Q 211.083 195.5 200.5 196 L 198 197 Q 195.75 202.833 199.5 202 Q 212.125 202.875 218 210.5 Q 222.2 214.3 220 224.5 L 218 229 Q 210.906 236.188 193.5 234 L 184 230.5 L 185 221 Q 192.25 224 204.5 223 Q 206.75 222.25 206 218.5 Q 198.589 212.339 187 211 Q 182.5 206.25 184 194.5 L 187 189 L 193.5 186 Z " /><path fill="rgb(6,7,8)" stroke="rgb(6,7,8)" stroke-width="1" opacity="0.19607843137254902" d="M 341.5 186 Q 361.833 182.667 368 193.5 Q 372.383 200.117 372 211.5 Q 371.813 223.313 365.5 229 Q 359.333 235.833 344.5 234 L 333 229 Q 325.188 220.594 328 200.5 Q 329.85 192.85 335.5 189 L 341.5 186 Z M 349 197 L 345 198 Q 342 201 342 208 L 343 219 Q 345 224 354 222 L 357 216 Q 359 206 356 201 Q 355 196 349 197 Z " /><path fill="rgb(6,7,8)" stroke="rgb(6,7,8)" stroke-width="1" opacity="0.19607843137254902" d="M 390.5 186 Q 403.107 184.929 411 187 L 410 199 L 399.5 197 L 393 200.5 Q 390.125 205.125 391 213.5 L 395.5 221 Q 398.667 223.333 405.5 222 L 410 221 L 412 231.5 Q 404.625 235.625 391.5 234 L 382 229 Q 375.338 222.071 376 206.5 Q 377.044 193.544 385.5 188 L 390.5 186 Z " /><path fill="rgb(6,7,8)" stroke="rgb(6,7,8)" stroke-width="1" opacity="0.19607843137254902" d="M 347.5 199 Q 353.75 197.75 355 201.5 Q 359 217 351.5 221 Q 346.375 221.625 345 218.5 Q 341.833 213.667 344 203.5 L 347.5 199 Z " /><path fill="rgb(6,7,8)" stroke="rgb(6,7,8)" stroke-width="1" opacity="0.19607843137254902" d="M 153.5 215 Q 161.292 212.3 159 219.5 Q 157.333 222.833 151.5 222 L 150 218.5 L 151 216 L 153.5 215 Z " /><path fill="rgb(140,144,146)" stroke="rgb(140,144,146)" stroke-width="1" opacity="0.9529411764705882" d="M 212.5 17 Q 270.246 14.254 294 45.5 Q 310.733 62.267 312 94.5 Q 307.936 129.436 285.5 146 Q 268.75 160.5 243 165 L 243 186.5 L 244.5 187 Q 248.667 182.667 258.5 184 L 266 187 L 270 196.5 L 270 232.5 L 268.5 234 L 252 234 L 252 202.5 L 249.5 200 L 243 202.5 L 243 234 L 225 234 L 225 166.5 Q 224.25 164.75 214.5 166 Q 177.359 160.141 158 136.5 Q 139.044 118.956 142 79.5 Q 148.495 51.995 167.5 37 Q 184.085 21.085 212.5 17 Z M 217 18 Q 187 22 169 38 Q 148 53 143 84 Q 142 119 159 136 Q 179 159 218 165 Q 226 164 227 166 L 227 233 L 241 233 L 241 202 Q 244 198 252 199 Q 256 202 254 212 L 254 232 L 253 233 L 268 233 L 268 195 L 267 192 L 260 186 Q 248 185 243 190 L 241 189 L 241 164 Q 271 159 289 141 Q 289 136 293 137 Q 306 123 310 99 Q 312 62 293 47 Q 270 17 217 18 Z " /><path fill="rgb(140,144,146)" stroke="rgb(140,144,146)" stroke-width="1" opacity="0.9529411764705882" d="M 213.5 26 Q 266.009 22.991 287 51.5 Q 303.995 67.005 302 101.5 L 299.5 103 L 293 95 Q 287.811 95.545 287.5 91 L 283 87.5 L 282.5 89 L 282 87.5 L 283 85 L 280.5 86 L 281 84.5 L 279 81.5 L 273 77 Q 274.125 74.333 271.5 75 L 269 71 L 266.5 70 L 262.5 75 L 261 75.5 L 261.5 77 Q 259.25 77.75 260 75.5 Q 262.75 73.75 258.5 72 L 254 70 Q 253.308 77.109 260 79.5 L 255.5 86 L 253 84.5 L 234.5 56 Q 230.25 56.437 231 52.5 L 219.5 38 L 204 62.5 L 205 64.5 L 203 65.5 L 203.5 64 Q 198.1 65.875 199 62.5 L 197 61.5 L 187 77 Q 181.75 78 181.5 75 L 178 72.5 Q 178.75 74.75 176.5 74 L 174.5 78 L 171 77 Q 169.875 79.667 172.5 79 Q 169.3 81 172.5 83 L 173 81 L 177 82.5 Q 179.8 84.513 179 89 L 182 89.5 L 180.5 92 L 180 90 Q 177.333 88.875 178 91.5 L 178 93.5 L 177.5 95 L 176.5 93 L 174 97.5 L 176 98.5 L 176.5 96 Q 178.25 98.75 180 94.5 L 179.5 93 L 183 91.5 L 190.5 81 L 194 82.5 L 195 89.5 L 193 92.5 Q 195.75 93.583 195 97 L 203 102 L 204.5 105 L 205 102.5 L 197 87.5 L 197 82.5 L 193 77.5 Q 195.5 79.119 198 75.5 L 198.5 78 Q 205.609 74.276 205 66 Q 208 67.25 207 63.5 L 209 60.5 L 208.5 59 L 211 60 L 214.5 51 L 216 51.5 L 218.5 48 L 221 49.5 Q 224.818 54.182 224 63.5 L 217 79.5 L 219.5 81 L 224 79 Q 222.875 76.333 225.5 77 Q 226.833 72.333 233.5 73 L 237 79 Q 239.667 77.875 239 80.5 L 254.5 97 L 263 103 L 269.5 111 Q 271.75 111.75 271 109.5 L 266.5 103 Q 264.25 103.75 265 101.5 L 263.5 99 L 261.5 100 L 262 98.5 L 260 91.5 L 262 88.5 L 261.5 87 L 264 85.5 L 266 80 L 268.5 80 Q 272.75 86 280 88 L 281.5 91 L 300 104 Q 296.348 126.484 280.5 138 Q 259.703 159.203 215.5 157 Q 182.706 151.294 165 130.5 Q 153.705 119.795 152 99.5 L 168 85.5 Q 167.167 82.875 170.5 84 Q 167.45 82.25 170 80.5 L 169.5 79 L 167 80.5 L 168 82.5 L 166 83.5 Q 166.667 80.875 164 82 Q 165.25 85 161.5 84 L 152.5 89 L 151 86.5 Q 154.96 56.96 174.5 43 Q 189.764 30.264 213.5 26 Z M 218 27 Q 190 30 175 45 Q 156 59 153 87 Q 167 81 178 71 L 186 75 L 197 60 L 203 62 L 216 40 Q 217 37 221 37 L 229 49 L 236 54 L 254 83 Q 253 85 256 84 L 258 80 Q 252 75 251 67 Q 259 66 263 73 L 265 69 L 270 70 L 285 86 L 285 87 L 294 95 Q 293 97 296 96 L 300 101 L 301 93 Q 300 67 287 54 Q 266 26 218 27 Z M 219 51 Q 206 66 198 85 L 210 109 L 210 111 L 202 104 L 199 102 L 192 95 L 193 91 L 193 83 L 191 84 L 187 89 Q 188 91 185 90 L 182 96 L 170 107 Q 167 114 164 110 L 178 87 L 176 83 L 155 98 L 153 102 Q 157 119 167 130 Q 172 130 171 135 Q 190 153 225 156 Q 257 155 276 140 Q 293 129 298 106 L 268 83 L 262 93 L 279 120 Q 269 118 265 108 Q 260 108 261 105 L 257 101 L 233 75 Q 227 81 218 83 L 215 80 L 223 62 L 220 54 Q 221 50 219 51 Z M 197 79 L 198 81 Q 199 78 197 79 Z M 174 98 L 170 103 L 172 103 Q 178 101 174 98 Z M 271 111 Q 270 114 273 113 Q 274 110 271 111 Z " /><path fill="rgb(140,144,146)" stroke="rgb(140,144,146)" stroke-width="1" opacity="0.9529411764705882" d="M 417.5 166 Q 430.25 162.25 434 167.5 L 434.5 201 L 443.5 185 L 461.5 185 L 462 187.5 Q 453.75 196.75 449 209.5 L 463 234 L 443.5 234 L 443 232.5 L 435 219.5 L 435 217 Q 431.5 215.875 433 223.5 Q 436 225.5 434 232.5 L 432.5 234 L 416 234 L 416 167.5 L 417.5 166 Z M 418 168 L 418 233 L 432 233 L 432 215 L 435 214 L 440 224 Q 439 227 442 226 L 444 233 L 461 233 L 448 211 L 448 207 L 460 188 L 460 186 Q 456 191 445 187 L 436 202 Q 437 204 435 203 Q 433 205 432 203 L 432 168 L 418 168 Z " /><path fill="rgb(140,144,146)" stroke="rgb(140,144,146)" stroke-width="1" opacity="0.9529411764705882" d="M 26.5 169 Q 44.25 167.25 54 173.5 Q 57.25 184.75 52.5 188 Q 44.179 183.821 30.5 185 Q 27.5 185.5 28 189.5 Q 36.25 196.25 49.5 198 L 55 203.5 Q 59.167 208.833 57 220.5 Q 55.45 227.45 50.5 231 Q 42.48 237.48 26.5 236 Q 16.233 235.267 10 230.5 L 11 215 Q 20.12 219.703 34.5 220 L 38 219 L 39 214.5 Q 30.988 207.012 17.5 205 L 13 200.5 Q 8.65 195.35 10 184.5 Q 11.45 176.95 16.5 173 L 26.5 169 Z M 24 171 L 18 174 L 12 183 Q 10 194 14 200 Q 23 209 39 211 L 40 214 Q 41 220 37 221 Q 21 222 12 217 L 13 223 Q 10 225 12 231 L 25 234 Q 41 236 49 230 Q 49 227 52 228 L 56 219 Q 57 208 53 204 L 49 199 L 28 192 L 27 187 L 32 183 L 50 185 L 52 187 L 53 175 Q 42 169 24 171 Z " /><path fill="rgb(140,144,146)" stroke="rgb(140,144,146)" stroke-width="1" opacity="0.9529411764705882" d="M 275 170 L 306.5 170 Q 315.95 171.55 321 177.5 Q 325.95 184.05 324 197.5 Q 322.15 205.15 316.5 209 Q 314.25 208.25 315 210.5 L 326 234 L 306.5 234 L 306 232.5 L 297 213 L 293 213.5 L 293 234 L 276.5 234 L 275 232.5 L 275 170 Z M 277 171 L 277 233 L 292 233 L 292 213 Q 293 210 297 211 Q 305 218 307 232 L 308 233 L 324 233 L 314 212 Q 312 207 316 208 Q 322 204 323 195 Q 324 182 319 177 L 309 172 Q 290 174 277 171 Z " /><path fill="rgb(140,144,146)" stroke="rgb(140,144,146)" stroke-width="1" opacity="0.9529411764705882" d="M 86.5 184 Q 97.846 182.654 101.5 189 Q 106.667 182.667 119.5 184 L 127 189.5 Q 133.125 201.875 130 223.5 Q 126.5 226.05 129 234 L 112 234 L 112 202.5 Q 111.5 199.5 107.5 200 L 103 202.5 Q 101.75 207.25 104 208.5 L 103 209.5 L 103 234 L 87.5 234 L 86 232.5 L 86 201.5 Q 85.875 200.375 80.5 201 L 78 202 L 78 234 L 61 234 L 61 185.5 L 61.5 185 L 75 185 L 76.5 189 L 86.5 184 Z M 63 186 L 62 233 L 77 233 L 77 201 Q 79 198 86 199 L 88 203 L 88 233 L 102 233 L 102 202 Q 104 198 112 199 L 113 201 Q 110 210 114 213 L 114 232 L 113 233 L 128 233 L 128 197 L 126 191 L 121 186 Q 107 184 102 191 L 94 186 Q 80 185 75 191 L 74 187 Q 65 190 63 186 Z " /><path fill="rgb(140,144,146)" stroke="rgb(140,144,146)" stroke-width="1" opacity="0.9529411764705882" d="M 152.5 184 Q 167.202 182.298 173 189.5 L 176 196.5 L 176 219.5 L 177.5 221 L 180 222.5 Q 182.75 232.25 178.5 235 L 171.5 236 L 163 233 Q 164.25 230 160.5 231 Q 155.745 236.745 144.5 236 Q 138.036 234.464 135 229.5 Q 131.833 225.167 132 217.5 Q 133.536 211.036 138.5 208 Q 145.717 202.8 158 204 L 158 199 L 146.5 199 Q 143.533 201.833 138 201 L 137 187.5 Q 142.645 183.645 152.5 184 Z M 148 186 L 138 188 L 140 200 L 149 197 Q 155 196 159 198 Q 161 200 160 205 Q 148 205 140 209 L 134 217 Q 133 225 136 229 L 144 234 Q 150 236 153 233 Q 158 235 157 231 L 163 229 L 164 232 L 169 234 Q 177 236 179 233 L 179 222 L 177 223 L 174 219 L 174 217 L 175 212 Q 177 198 172 191 Q 165 183 148 186 Z " /><path fill="rgb(140,144,146)" stroke="rgb(140,144,146)" stroke-width="1" opacity="0.9529411764705882" d="M 196.5 184 Q 211.029 183.118 220 187 L 218 200 Q 211.333 197.333 200.5 198 L 199 201 Q 213.67 202.064 221 211.5 L 222 223.5 L 219 230 Q 215.783 229.4 215.5 232 Q 209.625 236.625 198.5 236 L 183 233 L 184 219 Q 191.382 222.529 203.5 222 L 205 219.5 Q 197.589 213.339 186 212 Q 180.667 208 182 196.5 L 186 188 L 196.5 184 Z M 194 186 L 187 189 L 184 195 Q 183 206 187 211 Q 199 212 206 219 Q 207 222 205 223 Q 192 224 185 221 L 184 231 L 194 234 Q 211 236 218 229 L 220 225 Q 222 214 218 211 Q 212 203 200 202 Q 196 203 198 197 L 201 196 Q 211 196 217 199 L 218 188 Q 210 184 194 186 Z " /><path fill="rgb(140,144,146)" stroke="rgb(140,144,146)" stroke-width="1" opacity="0.9529411764705882" d="M 292 184 Q 301.611 182.214 306 186.5 L 307 194.5 L 303.5 199 Q 300.333 201.333 293.5 200 L 292 198.5 L 292 184 Z M 298 185 L 297 186 L 293 187 L 293 198 Q 301 200 304 196 Q 307 196 305 189 Q 303 185 298 185 Z " /><path fill="rgb(140,144,146)" stroke="rgb(140,144,146)" stroke-width="1" opacity="0.9529411764705882" d="M 343.5 184 Q 362.818 181.682 369 192.5 Q 375.462 200.538 373 217.5 Q 371.214 227.214 364.5 232 Q 358.321 236.821 346.5 236 Q 335.405 234.595 330 227.5 Q 324 219.5 326 203.5 Q 327.45 192.95 334.5 188 L 343.5 184 Z M 342 186 L 336 189 Q 330 193 328 201 Q 325 221 333 229 L 345 234 Q 359 236 366 229 Q 372 223 372 212 Q 372 200 368 194 Q 362 183 342 186 Z " /><path fill="rgb(140,144,146)" stroke="rgb(140,144,146)" stroke-width="1" opacity="0.9529411764705882" d="M 391.5 184 Q 406.227 181.773 413 187.5 Q 413.436 196.436 409.5 201 Q 405.5 198 397.5 199 Q 390 202 393 215.5 Q 395 222 405.5 220 L 411 218 Q 413.636 224.097 413 233 Q 406.5 236.857 394.5 236 Q 385.05 234.45 380 228.5 Q 372.941 220.059 375 202.5 L 380 190 L 391.5 184 Z M 391 186 L 386 188 Q 377 194 376 207 Q 375 222 382 229 L 392 234 Q 405 236 412 232 L 410 221 L 406 222 Q 399 223 396 221 L 391 214 Q 390 205 393 201 L 400 197 L 410 199 L 411 187 Q 403 185 391 186 Z " /><path fill="rgb(140,144,146)" stroke="rgb(140,144,146)" stroke-width="1" opacity="0.9529411764705882" d="M 348.5 197 Q 354.656 196.344 356 200.5 Q 358.5 206 357 215.5 L 353.5 222 Q 344.75 223.75 343 218.5 L 342 207.5 Q 342.262 200.97 345 198 L 348.5 197 Z M 348 199 L 344 204 Q 342 214 345 219 Q 346 222 352 221 Q 359 217 355 202 Q 354 198 348 199 Z " /><path fill="rgb(140,144,146)" stroke="rgb(140,144,146)" stroke-width="1" opacity="0.9529411764705882" d="M 155.5 213 Q 160.9 211.125 160 214.5 L 161 216.5 L 160 222 Q 157.714 224.571 151.5 224 L 149 223 L 148 217.5 Q 149.95 213.45 155.5 213 Z M 154 215 L 151 216 L 150 219 L 152 222 Q 157 223 159 220 Q 161 212 154 215 Z " /></svg>